<?xml version="1.0" encoding="UTF-8"?>
<!DOCTYPE svg PUBLIC "-//W3C//DTD SVG 1.1//EN" "http://www.w3.org/Graphics/SVG/1.1/DTD/svg11.dtd">
<!-- Creator: CorelDRAW (OEM Version) -->
<svg xmlns="http://www.w3.org/2000/svg" xml:space="preserve" width="88.9mm" height="50.8mm" version="1.1" style="shape-rendering:geometricPrecision; text-rendering:geometricPrecision; image-rendering:optimizeQuality; fill-rule:evenodd; clip-rule:evenodd"
viewBox="0 0 8890 5080"
 xmlns:xlink="http://www.w3.org/1999/xlink"
 xmlns:xodm="http://www.corel.com/coreldraw/odm/2003">
 <defs>
  <style type="text/css">
   <![CDATA[
    .fil6 {fill:none;fill-rule:nonzero}
    .fil0 {fill:#2B2A29;fill-rule:nonzero}
    .fil7 {fill:url(#id2)}
    .fil4 {fill:url(#id3)}
    .fil11 {fill:url(#id4)}
    .fil8 {fill:url(#id5)}
    .fil10 {fill:url(#id6)}
    .fil1 {fill:url(#id7)}
    .fil2 {fill:url(#id8)}
    .fil5 {fill:url(#id9)}
    .fil3 {fill:url(#id10)}
    .fil9 {fill:url(#id11)}
   ]]>
  </style>
    <clipPath id="id0" style="clip-rule:nonzero">
     <path d="M3572.66 2070.73l-595.02 1740.46 764.41 0 0.59 -1.95 567.15 -1.47c15.93,-0.04 44.37,-2.27 85.31,-6.82 40.94,-4.53 89.87,-21.05 146.74,-49.48 56.87,-28.44 118.88,-73.95 185.99,-136.51 67.09,-62.56 137.16,-151.1 206.47,-267.89l798.1 -1344.89 -917.57 2.6 -887.2 1186.43 2.38 -7.96 573.04 -1914.44 -685.93 0c-88.72,0 -175.17,21.05 -259.35,63.13 -84.18,42.1 -155.84,99.53 -215,172.33l-488 614.27 -112.62 -583.55c-9.1,-40.96 -25.58,-77.35 -49.47,-109.2 -23.89,-31.84 -52.91,-59.72 -87.02,-83.61 -34.14,-23.9 -71.66,-42.08 -112.62,-54.6 -40.94,-12.51 -81.9,-18.77 -122.84,-18.77l-764.44 0 -764.41 2542.38 754.17 0 532.37 -1767.73 232.07 1214.88 167.21 0 1045.49 -1187.61z"/>
    </clipPath>
    <clipPath id="id1" style="clip-rule:nonzero">
     <path d="M7123.86 3087.71c72.8,0 142.77,-13.65 209.86,-40.94 67.13,-27.28 130.26,-63.14 189.4,-107.5 59.17,-44.37 113.76,-95.55 163.81,-153.56 50.06,-58.03 95.55,-117.74 136.51,-179.16 72.8,-113.76 128.53,-235.48 167.22,-365.15 38.66,-129.69 58,-261.63 58,-395.87 0,-68.25 -12.51,-134.22 -37.52,-197.92 -25.03,-63.71 -60.31,-119.44 -105.8,-167.21 -77.35,-77.35 -166.66,-131.96 -267.89,-163.8 -101.24,-31.84 -206.49,-47.79 -315.65,-47.79l-2698.3 0 -138.55 458.77 2642.32 1.93c31.84,0 60.31,7.44 85.32,22.19 24.97,14.75 46.63,34.12 64.83,58.01 18.21,23.89 32.43,50.61 42.67,80.19 10.22,29.59 15.34,58.01 15.34,85.32 0,79.62 -14.2,154.7 -42.65,225.22 -28.44,70.54 -68.81,134.24 -121.15,191.11 -20.48,22.75 -40.37,44.94 -59.72,66.54 -19.34,21.62 -43.23,40.39 -71.66,56.32 -28.44,15.93 -63.17,28.46 -104.09,37.53 -40.92,9.08 -93.34,13.79 -156.97,13.65l-1141.59 -2.72 -867.08 1248.32 712.68 0 408.19 -723.48 1232.47 0z"/>
    </clipPath>
  <linearGradient id="id2" gradientUnits="userSpaceOnUse" x1="3722.04" y1="1136.15" x2="4622.99" y2="2126.15">
   <stop offset="0" style="stop-opacity:1; stop-color:#8F213A"/>
   <stop offset="1" style="stop-opacity:1; stop-color:#E73F43"/>
  </linearGradient>
  <linearGradient id="id3" gradientUnits="userSpaceOnUse" x1="3253.85" y1="1524.89" x2="5004.63" y2="3448.71">
   <stop offset="0" style="stop-opacity:1; stop-color:#0A6F32"/>
   <stop offset="1" style="stop-opacity:1; stop-color:#83C073"/>
  </linearGradient>
  <linearGradient id="id4" gradientUnits="userSpaceOnUse" x1="3250.05" y1="1565.68" x2="4151" y2="2555.68">
   <stop offset="0" style="stop-opacity:1; stop-color:#0A5199"/>
   <stop offset="1" style="stop-opacity:1; stop-color:#46B8C0"/>
  </linearGradient>
  <linearGradient id="id5" gradientUnits="userSpaceOnUse" x1="3604.04" y1="1243.53" x2="4504.99" y2="2233.53">
   <stop offset="0" style="stop-opacity:1; stop-color:#8E2878"/>
   <stop offset="1" style="stop-opacity:1; stop-color:#E68E9A"/>
  </linearGradient>
  <linearGradient id="id6" gradientUnits="userSpaceOnUse" xlink:href="#id3" x1="3368.04" y1="1458.3" x2="4268.99" y2="2448.3">
  </linearGradient>
  <linearGradient id="id7" gradientUnits="userSpaceOnUse" xlink:href="#id2" x1="3941.75" y1="898.86" x2="5692.53" y2="2822.69">
  </linearGradient>
  <linearGradient id="id8" gradientUnits="userSpaceOnUse" xlink:href="#id5" x1="3712.45" y1="1107.54" x2="5463.23" y2="3031.36">
  </linearGradient>
  <linearGradient id="id9" gradientUnits="userSpaceOnUse" xlink:href="#id4" x1="3024.55" y1="1733.56" x2="4775.33" y2="3657.39">
  </linearGradient>
  <linearGradient id="id10" gradientUnits="userSpaceOnUse" x1="3483.15" y1="1316.21" x2="5233.93" y2="3240.04">
   <stop offset="0" style="stop-opacity:1; stop-color:#D28023"/>
   <stop offset="1" style="stop-opacity:1; stop-color:#DDC943"/>
  </linearGradient>
  <linearGradient id="id11" gradientUnits="userSpaceOnUse" xlink:href="#id10" x1="3486.04" y1="1350.92" x2="4386.99" y2="2340.91">
  </linearGradient>
 </defs>
 <g id="Layer_x0020_1">
  <metadata id="CorelCorpID_0Corel-Layer"/>
  <g id="_2920834872192">
   <path class="fil0" d="M3572.66 2070.73l-595.02 1740.46 764.41 0 0.59 -1.95 567.15 -1.47c15.93,-0.04 44.37,-2.27 85.31,-6.82 40.94,-4.53 89.87,-21.05 146.74,-49.48 56.87,-28.44 118.88,-73.95 185.99,-136.51 67.09,-62.56 137.16,-151.1 206.47,-267.89l798.1 -1344.89 -917.57 2.6 -887.2 1186.43 2.38 -7.96 573.04 -1914.44 -685.93 0c-88.72,0 -175.17,21.05 -259.35,63.13 -84.18,42.1 -155.84,99.53 -215,172.33l-488 614.27 -112.62 -583.55c-9.1,-40.96 -25.58,-77.35 -49.47,-109.2 -23.89,-31.84 -52.91,-59.72 -87.02,-83.61 -34.14,-23.9 -71.66,-42.08 -112.62,-54.6 -40.94,-12.51 -81.9,-18.77 -122.84,-18.77l-764.44 0 -764.41 2542.38 754.17 0 532.37 -1767.73 232.07 1214.88 167.21 0 1045.49 -1187.61z"/>
   <g style="clip-path:url(#id0)">
    <g>
     <g>
      <polygon id="_1" class="fil1" points="4056.4,794.52 5807.19,2718.35 5577.89,2927.02 3827.1,1003.2 "/>
      <polygon class="fil2" points="3827.1,1003.2 5577.89,2927.02 5348.59,3135.7 3597.8,1211.87 "/>
      <polygon class="fil3" points="3597.8,1211.87 5348.59,3135.7 5119.29,3344.37 3368.5,1420.55 "/>
      <polygon class="fil4" points="3368.5,1420.55 5119.29,3344.37 4889.99,3553.05 3139.2,1629.22 "/>
      <polygon class="fil5" points="3139.2,1629.22 4889.99,3553.05 4660.69,3761.72 2909.9,1837.9 "/>
     </g>
    </g>
   </g>
   <path class="fil6" d="M3572.66 2070.73l-595.02 1740.46 764.41 0 0.59 -1.95 567.15 -1.47c15.93,-0.04 44.37,-2.27 85.31,-6.82 40.94,-4.53 89.87,-21.05 146.74,-49.48 56.87,-28.44 118.88,-73.95 185.99,-136.51 67.09,-62.56 137.16,-151.1 206.47,-267.89l798.1 -1344.89 -917.57 2.6 -887.2 1186.43 2.38 -7.96 573.04 -1914.44 -685.93 0c-88.72,0 -175.17,21.05 -259.35,63.13 -84.18,42.1 -155.84,99.53 -215,172.33l-488 614.27 -112.62 -583.55c-9.1,-40.96 -25.58,-77.35 -49.47,-109.2 -23.89,-31.84 -52.91,-59.72 -87.02,-83.61 -34.14,-23.9 -71.66,-42.08 -112.62,-54.6 -40.94,-12.51 -81.9,-18.77 -122.84,-18.77l-764.44 0 -764.41 2542.38 754.17 0 532.37 -1767.73 232.07 1214.88 167.21 0 1045.49 -1187.61z"/>
   <path class="fil0" d="M7123.86 3087.71c72.8,0 142.77,-13.65 209.86,-40.94 67.13,-27.28 130.26,-63.14 189.4,-107.5 59.17,-44.37 113.76,-95.55 163.81,-153.56 50.06,-58.03 95.55,-117.74 136.51,-179.16 72.8,-113.76 128.53,-235.48 167.22,-365.15 38.66,-129.69 58,-261.63 58,-395.87 0,-68.25 -12.51,-134.22 -37.52,-197.92 -25.03,-63.71 -60.31,-119.44 -105.8,-167.21 -77.35,-77.35 -166.66,-131.96 -267.89,-163.8 -101.24,-31.84 -206.49,-47.79 -315.65,-47.79l-2698.3 0 -138.55 458.77 2642.32 1.93c31.84,0 60.31,7.44 85.32,22.19 24.97,14.75 46.63,34.12 64.83,58.01 18.21,23.89 32.43,50.61 42.67,80.19 10.22,29.59 15.34,58.01 15.34,85.32 0,79.62 -14.2,154.7 -42.65,225.22 -28.44,70.54 -68.81,134.24 -121.15,191.11 -20.48,22.75 -40.37,44.94 -59.72,66.54 -19.34,21.62 -43.23,40.39 -71.66,56.32 -28.44,15.93 -63.17,28.46 -104.09,37.53 -40.92,9.08 -93.34,13.79 -156.97,13.65l-1141.59 -2.72 -867.08 1248.32 712.68 0 408.19 -723.48 1232.47 0z"/>
   <g style="clip-path:url(#id1)">
    <g>
     <g>
      <polygon id="_1_0" class="fil7" points="3781.04,1082.46 4681.99,2072.45 4563.99,2179.84 3663.04,1189.84 "/>
      <polygon class="fil8" points="3663.04,1189.84 4563.99,2179.84 4445.99,2287.22 3545.04,1297.22 "/>
      <polygon class="fil9" points="3545.04,1297.22 4445.99,2287.22 4327.99,2394.6 3427.04,1404.61 "/>
      <polygon class="fil10" points="3427.04,1404.61 4327.99,2394.6 4210,2501.99 3309.05,1511.99 "/>
      <polygon class="fil11" points="3309.05,1511.99 4210,2501.99 4092,2609.37 3191.05,1619.37 "/>
     </g>
    </g>
   </g>
   <path class="fil6" d="M7123.86 3087.71c72.8,0 142.77,-13.65 209.86,-40.94 67.13,-27.28 130.26,-63.14 189.4,-107.5 59.17,-44.37 113.76,-95.55 163.81,-153.56 50.06,-58.03 95.55,-117.74 136.51,-179.16 72.8,-113.76 128.53,-235.48 167.22,-365.15 38.66,-129.69 58,-261.63 58,-395.87 0,-68.25 -12.51,-134.22 -37.52,-197.92 -25.03,-63.71 -60.31,-119.44 -105.8,-167.21 -77.35,-77.35 -166.66,-131.96 -267.89,-163.8 -101.24,-31.84 -206.49,-47.79 -315.65,-47.79l-2698.3 0 -138.55 458.77 2642.32 1.93c31.84,0 60.31,7.44 85.32,22.19 24.97,14.75 46.63,34.12 64.83,58.01 18.21,23.89 32.43,50.61 42.67,80.19 10.22,29.59 15.34,58.01 15.34,85.32 0,79.62 -14.2,154.7 -42.65,225.22 -28.44,70.54 -68.81,134.24 -121.15,191.11 -20.48,22.75 -40.37,44.94 -59.72,66.54 -19.34,21.62 -43.23,40.39 -71.66,56.32 -28.44,15.93 -63.17,28.46 -104.09,37.53 -40.92,9.08 -93.34,13.79 -156.97,13.65l-1141.59 -2.72 -867.08 1248.32 712.68 0 408.19 -723.48 1232.47 0z"/>
  </g>
 </g>
</svg>
